<?xml version="1.0" standalone="no"?>
<!DOCTYPE svg PUBLIC "-//W3C//DTD SVG 20010904//EN"
 "http://www.w3.org/TR/2001/REC-SVG-20010904/DTD/svg10.dtd">
<svg version="1.0" xmlns="http://www.w3.org/2000/svg"
 width="128.000000pt" height="128.000000pt" viewBox="0 0 128.000000 128.000000"
 preserveAspectRatio="xMidYMid meet">
<metadata>
Created by potrace 1.11, written by Peter Selinger 2001-2013
</metadata>
<g transform="translate(0.000000,128.000000) scale(0.100000,-0.100000)"
fill="#000000" stroke="none">
<path d="M132 1138 c-7 -7 -12 -26 -12 -42 0 -31 44 -204 60 -235 37 -74 51
-111 46 -120 -4 -6 -8 -30 -10 -54 -5 -59 -53 -197 -77 -223 -20 -21 -20 -21
3 -36 13 -9 39 -19 58 -24 19 -4 38 -9 43 -10 4 -1 13 -2 20 -3 6 -1 -8 -12
-31 -25 l-44 -22 54 -37 c144 -99 401 -131 613 -77 99 25 129 38 193 83 l43
31 -43 23 c-24 12 -38 23 -33 23 51 7 95 20 120 36 l24 15 -24 35 c-28 41 -62
140 -70 204 -3 25 -8 53 -11 63 -3 10 -1 23 4 30 29 35 102 266 102 322 0 72
-45 72 -185 0 -116 -59 -143 -64 -230 -41 -61 16 -152 14 -223 -4 -72 -19
-135 -4 -237 54 -80 46 -130 57 -153 34z"/>
</g>
</svg>
